<?xml version="1.0" standalone="no"?>
<!DOCTYPE svg PUBLIC "-//W3C//DTD SVG 20010904//EN"
 "http://www.w3.org/TR/2001/REC-SVG-20010904/DTD/svg10.dtd">
<svg version="1.0" xmlns="http://www.w3.org/2000/svg"
 width="1280.000000pt" height="1280.000000pt" viewBox="0 0 1280.000000 1280.000000"
 preserveAspectRatio="xMidYMid meet">
<metadata>
Created by potrace 1.15, written by Peter Selinger 2001-2017
</metadata>
<g transform="translate(0.000000,1280.000000) scale(0.100000,-0.100000)"
fill="#000000" stroke="none">
<path d="M6070 12794 c-30 -2 -118 -8 -195 -14 -1142 -88 -2251 -492 -3200
-1165 -1352 -959 -2285 -2400 -2574 -3975 -72 -390 -95 -657 -96 -1080 0 -362
8 -488 51 -810 151 -1125 635 -2209 1386 -3106 1047 -1248 2527 -2049 4118
-2229 484 -54 1079 -44 1565 26 2580 373 4698 2376 5189 4905 69 356 100 699
99 1104 0 403 -32 731 -104 1095 -199 996 -631 1889 -1305 2700 -139 168 -572
600 -739 739 -686 571 -1426 966 -2255 1206 -346 100 -718 170 -1125 212 -200
20 -885 17 -1090 -5 -766 -83 -1421 -273 -2085 -603 -607 -302 -1113 -667
-1596 -1149 -671 -670 -1148 -1436 -1439 -2310 -200 -602 -288 -1143 -288
-1775 0 -392 23 -654 89 -1020 213 -1172 827 -2297 1716 -3143 1359 -1294
3201 -1868 5010 -1562 958 162 1878 573 2648 1183 420 333 825 758 1132 1187
572 802 915 1693 1023 2660 23 201 32 765 15 963 -37 458 -118 872 -252 1280
-428 1313 -1329 2429 -2543 3151 -139 83 -483 258 -635 324 -1100 475 -2315
587 -3470 321 -2242 -518 -3974 -2370 -4300 -4595 -41 -281 -53 -491 -47 -844
5 -322 15 -461 52 -700 137 -877 489 -1703 1029 -2420 163 -216 287 -357 515
-586 222 -221 363 -346 571 -505 1122 -855 2527 -1247 3910 -1088 1594 182
3043 1075 3935 2424 477 722 756 1506 847 2380 17 168 17 764 0 930 -69 651
-235 1234 -512 1792 -43 86 -91 178 -106 205 -189 332 -368 592 -585 853 -134
161 -427 459 -590 601 -1172 1018 -2675 1474 -4179 1268 -1863 -255 -3480
-1521 -4168 -3264 -182 -462 -292 -951 -333 -1476 -22 -290 -2 -760 47 -1069
216 -1386 1031 -2647 2224 -3442 318 -212 679 -398 1035 -532 615 -233 1218
-337 1880 -323 267 6 367 13 580 43 899 125 1748 490 2460 1058 294 235 584
524 821 821 947 1185 1286 2734 914 4171 -480 1851 -2048 3291 -3934 3615
-467 80 -998 90 -1456 28 -1743 -237 -3231 -1397 -3879 -3024 -288 -722 -383
-1519 -275 -2300 103 -744 417 -1503 873 -2110 289 -385 627 -723 1001 -999
520 -386 1140 -674 1751 -812 373 -84 651 -114 1059 -114 501 0 931 67 1406
221 1007 325 1887 993 2473 1876 736 1109 939 2452 560 3708 -134 441 -369
919 -641 1298 -330 459 -748 862 -1214 1169 -588 389 -1226 627 -1919 717
-362 48 -853 42 -1221 -13 -1417 -214 -2683 -1128 -3327 -2401 -336 -664 -497
-1402 -458 -2102 32 -591 162 -1103 411 -1619 299 -621 726 -1146 1288 -1582
487 -379 1098 -665 1702 -798 332 -73 564 -98 915 -98 504 0 883 61 1344 213
836 278 1568 805 2101 1516 434 578 701 1237 796 1960 21 165 30 634 15 806
-62 686 -279 1309 -658 1889 -216 329 -540 689 -840 934 -823 671 -1844 1010
-2852 947 -1031 -65 -1956 -483 -2681 -1212 -331 -332 -574 -676 -780 -1102
-207 -429 -328 -866 -370 -1337 -14 -166 -12 -532 5 -697 30 -297 83 -543 174
-821 450 -1359 1639 -2397 3041 -2656 410 -76 857 -86 1250 -30 1100 158 2085
776 2703 1696 368 548 580 1155 628 1803 13 165 7 513 -11 665 -82 690 -368
1367 -805 1905 -569 700 -1346 1172 -2210 1344 -229 46 -378 62 -640 68 -259
6 -460 -8 -690 -47 -1593 -270 -2850 -1560 -3050 -3130 -23 -178 -30 -515 -16
-696 58 -702 324 -1362 778 -1929 106 -133 371 -401 505 -511 561 -463 1247
-749 1951 -813 156 -15 503 -15 647 -1 1062 105 2014 678 2604 1565 297 447
472 914 542 1450 25 183 24 601 0 780 -52 385 -141 686 -301 1022 -167 349
-380 648 -665 934 -453 454 -989 758 -1603 908 -482 119 -1018 124 -1502 16
-883 -198 -1665 -763 -2132 -1540 -416 -692 -551 -1507 -377 -2283 238 -1062
1040 -1954 2083 -2316 799 -278 1664 -220 2423 160 887 444 1512 1277 1673
2226 159 943 -155 1896 -853 2586 -390 384 -893 666 -1411 788 -704 167 -1422
75 -2061 -262 -126 -67 -299 -179 -435 -283 -128 -97 -389 -356 -494 -489
-555 -705 -746 -1573 -530 -2417 185 -722 678 -1361 1343 -1740 1211 -691
2729 -377 3571 740 260 345 418 711 496 1150 30 169 38 538 15 715 -51 388
-185 756 -394 1080 -200 311 -509 615 -827 815 -117 74 -363 194 -490 240
-784 283 -1636 175 -2320 -293 -152 -104 -241 -178 -370 -307 -400 -400 -646
-901 -715 -1455 -15 -125 -12 -430 5 -567 83 -639 435 -1232 966 -1628 344
-257 750 -417 1178 -466 150 -17 515 -6 651 19 505 95 924 314 1280 672 152
151 258 287 363 464 353 595 405 1323 142 1953 -310 740 -994 1266 -1779 1369
-169 22 -506 15 -662 -15 -460 -87 -858 -300 -1182 -635 -737 -761 -793 -1891
-135 -2706 79 -98 247 -260 351 -339 266 -201 568 -333 898 -392 146 -26 448
-31 589 -10 767 114 1388 630 1619 1347 260 809 -90 1698 -841 2141 -475 279
-1053 328 -1558 131 -540 -210 -940 -654 -1085 -1204 -54 -208 -63 -496 -21
-706 134 -664 642 -1175 1314 -1320 86 -18 135 -22 307 -22 178 -1 219 2 314
23 869 185 1427 1012 1235 1831 -139 597 -646 1054 -1253 1130 -138 18 -341 7
-477 -24 -275 -63 -510 -196 -705 -398 -110 -114 -172 -201 -240 -334 -95
-188 -138 -368 -138 -579 0 -215 39 -378 135 -569 63 -125 122 -209 224 -315
182 -190 386 -304 665 -373 37 -9 119 -13 250 -13 178 1 203 3 291 27 405 110
717 395 845 771 79 231 73 523 -15 742 -83 206 -233 394 -411 515 -369 250
-861 242 -1211 -22 -465 -350 -526 -993 -134 -1393 123 -125 254 -203 415
-247 120 -32 311 -32 423 0 277 79 487 272 573 527 32 96 43 254 25 361 -54
310 -331 560 -642 581 -300 20 -572 -167 -654 -450 -23 -81 -22 -215 4 -297
72 -227 259 -370 485 -370 128 0 215 34 308 119 199 182 163 497 -70 604 -61
28 -180 30 -232 3 -121 -62 -174 -191 -121 -294 50 -97 184 -119 239 -38 30
44 28 53 -15 60 -67 12 -71 15 -68 46 1 17 11 40 21 51 28 31 104 22 146 -17
86 -81 75 -202 -27 -292 -149 -131 -381 -70 -477 126 -30 60 -33 75 -33 157 0
80 4 97 31 155 80 166 231 260 418 260 247 0 455 -173 512 -427 62 -281 -122
-577 -426 -685 -56 -19 -85 -23 -205 -23 -126 0 -147 3 -216 27 -251 88 -436
300 -485 556 -76 395 190 791 607 904 69 18 108 22 219 22 161 -1 247 -21 385
-89 447 -218 639 -766 426 -1212 -54 -113 -111 -194 -200 -284 -228 -231 -558
-343 -877 -298 -480 66 -874 459 -944 938 -17 112 -7 312 19 414 112 428 445
759 878 872 352 92 703 29 1023 -184 104 -69 267 -230 337 -332 111 -162 189
-353 219 -534 19 -119 14 -350 -10 -460 -55 -246 -171 -465 -344 -647 -178
-186 -371 -309 -608 -387 -275 -89 -607 -87 -884 8 -504 171 -881 591 -995
1111 -22 101 -31 383 -16 492 36 249 134 486 288 697 31 42 106 126 167 186
219 217 477 358 791 431 111 26 136 28 335 28 212 1 238 -2 399 -40 148 -36
353 -124 489 -210 234 -149 458 -392 596 -644 82 -152 152 -370 177 -557 17
-132 7 -420 -20 -541 -64 -290 -201 -561 -400 -788 -256 -294 -627 -506 -1023
-586 -98 -20 -143 -23 -333 -23 -239 1 -318 11 -502 64 -303 87 -553 233 -787
461 -761 738 -763 1902 -5 2659 301 302 679 495 1113 568 125 21 463 24 576 5
378 -65 671 -187 948 -396 563 -426 876 -1099 822 -1772 -39 -493 -239 -934
-587 -1294 -337 -350 -746 -566 -1230 -651 -104 -19 -167 -23 -338 -23 -279
-1 -452 26 -710 110 -120 39 -349 146 -460 214 -405 248 -742 643 -919 1077
-338 828 -143 1762 504 2414 69 69 161 154 205 189 350 276 734 440 1182 506
150 22 461 22 618 0 553 -78 1035 -323 1431 -727 370 -379 604 -857 675 -1379
17 -121 17 -466 0 -590 -80 -599 -387 -1163 -850 -1561 -1027 -885 -2528 -838
-3505 111 -429 416 -690 917 -783 1503 -25 158 -25 555 0 717 90 587 356 1104
783 1522 422 414 934 672 1524 769 180 30 527 37 715 15 356 -42 648 -130 965
-292 944 -480 1551 -1452 1550 -2484 0 -451 -98 -852 -307 -1263 -143 -280
-305 -501 -537 -733 -488 -489 -1090 -779 -1781 -860 -191 -22 -552 -15 -748
16 -1114 173 -2049 955 -2416 2023 -51 147 -95 326 -122 493 -30 187 -37 557
-14 754 79 691 377 1301 880 1806 382 382 842 657 1355 808 485 142 1005 163
1508 60 833 -171 1580 -683 2055 -1409 275 -422 444 -900 497 -1405 13 -124
13 -450 0 -581 -108 -1109 -797 -2093 -1825 -2607 -950 -475 -2049 -468 -3005
19 -878 446 -1543 1278 -1771 2214 -66 272 -91 488 -92 775 -2 455 85 881 263
1297 427 995 1309 1749 2370 2027 443 116 909 142 1375 75 1042 -149 1971
-758 2546 -1669 239 -378 415 -841 488 -1282 59 -353 61 -752 5 -1098 -212
-1327 -1177 -2450 -2484 -2892 -805 -272 -1668 -257 -2480 43 -241 89 -569
259 -795 412 -1167 788 -1808 2147 -1650 3502 199 1711 1591 3115 3330 3360
344 48 749 48 1085 -1 876 -126 1674 -536 2300 -1180 630 -648 1009 -1454
1102 -2344 19 -183 16 -601 -6 -780 -109 -906 -502 -1713 -1146 -2359 -695
-697 -1567 -1109 -2550 -1207 -201 -20 -643 -14 -842 10 -955 119 -1819 548
-2493 1237 -457 467 -778 990 -979 1592 -153 457 -215 877 -203 1362 15 612
155 1164 436 1720 216 428 479 785 833 1130 1083 1059 2606 1471 4063 1099
455 -116 916 -319 1310 -579 904 -595 1565 -1502 1835 -2518 154 -580 181
-1194 79 -1782 -150 -861 -560 -1655 -1188 -2299 -1355 -1386 -3412 -1756
-5151 -924 -1377 658 -2353 1970 -2559 3438 -37 269 -44 386 -38 692 6 355 32
577 103 888 116 512 333 1019 629 1470 740 1125 1949 1895 3265 2079 476 66
947 61 1410 -15 754 -124 1469 -433 2090 -903 191 -145 308 -248 506 -445 388
-388 665 -775 904 -1261 263 -537 409 -1062 460 -1662 18 -207 8 -681 -19
-888 -137 -1057 -598 -1996 -1352 -2755 -979 -985 -2311 -1512 -3664 -1450
-709 32 -1318 188 -1950 500 -520 256 -920 543 -1335 959 -389 389 -671 775
-910 1246 -513 1008 -653 2101 -410 3195 199 900 683 1759 1372 2436 858 844
1934 1340 3143 1450 226 20 735 15 950 -10 785 -93 1503 -344 2161 -757 470
-295 917 -689 1260 -1109 937 -1150 1323 -2581 1078 -4000 -361 -2093 -2072
-3804 -4204 -4204 -360 -67 -523 -81 -965 -81 -397 1 -502 8 -810 56 -1445
226 -2773 1083 -3604 2322 -350 523 -609 1117 -750 1725 -205 880 -165 1826
115 2692 161 499 431 1036 732 1455 723 1004 1744 1733 2922 2084 717 214
1458 272 2230 175 738 -92 1511 -370 2175 -782 669 -415 1265 -990 1704 -1645
354 -528 635 -1173 770 -1762 102 -447 136 -749 135 -1210 0 -322 -9 -454 -49
-737 -196 -1369 -929 -2627 -2055 -3524 -871 -694 -1912 -1112 -3035 -1216
-180 -17 -765 -17 -945 0 -1324 123 -2523 675 -3483 1602 -942 910 -1545 2111
-1691 3370 -53 449 -46 972 19 1415 118 810 419 1590 886 2291 449 675 1055
1268 1746 1707 1282 816 2800 1098 4278 796 1769 -362 3304 -1544 4115 -3169
324 -649 506 -1288 582 -2035 17 -174 17 -807 0 -980 -78 -777 -277 -1453
-623 -2123 -832 -1613 -2390 -2789 -4174 -3151 -667 -135 -1361 -154 -2045
-56 -863 125 -1719 454 -2470 950 -694 458 -1297 1063 -1756 1760 -445 677
-752 1442 -888 2215 -69 391 -90 679 -83 1125 5 330 17 484 57 750 270 1778
1356 3371 2950 4327 696 418 1493 703 2285 817 338 49 440 55 890 55 342 0
463 -3 590 -17 795 -87 1469 -280 2150 -617 646 -319 1178 -701 1691 -1214
234 -235 407 -432 587 -671 631 -840 1037 -1808 1181 -2815 45 -313 51 -415
51 -850 -1 -443 -7 -538 -55 -870 -345 -2351 -2097 -4366 -4430 -5096 -554
-173 -1121 -268 -1695 -283 l-240 -6 -3 -89 -3 -89 223 6 c999 29 1936 270
2824 727 1137 584 2103 1505 2732 2605 452 792 716 1626 808 2555 22 220 25
813 6 1030 -61 681 -213 1301 -467 1905 -677 1611 -2004 2899 -3649 3542 -546
213 -1137 352 -1741 408 -159 15 -727 28 -855 19z"/>
</g>
</svg>
